<svg xmlns="http://www.w3.org/2000/svg" viewBox="0 0 1200 600" preserveAspectRatio="xMidYMid slice">
  <defs>
    <linearGradient id="g1" x1="0" x2="1">
      <stop offset="0%" stop-color="#dff7e8"/>
      <stop offset="100%" stop-color="#e6f9ec"/>
    </linearGradient>
  </defs>
  <!-- soft distant canopy -->
  <rect width="1200" height="600" fill="url(#g1)" />
  <!-- layered foliage shapes -->
  <g fill="#9fd9a5" fill-opacity="0.28">
    <ellipse cx="150" cy="200" rx="300" ry="140" />
    <ellipse cx="1050" cy="220" rx="300" ry="120" />
    <ellipse cx="600" cy="130" rx="640" ry="140" />
  </g>
  <g fill="#7fc88a" fill-opacity="0.36">
    <path d="M40 420 q120 -200 320 -160 q140 28 220 -10 q170 -58 360 180 v170 H40z" />
  </g>
  <g fill="#66b46f" fill-opacity="0.42">
    <path d="M0 480 q120 -120 240 -90 q180 40 360 -30 q220 -90 600 170 v120 H0z" />
  </g>
  <!-- decorative large leaf silhouettes on corners -->
  <g fill="#4aa45a" fill-opacity="0.55">
    <path d="M1200 40 c-60 20 -110 80 -140 150 c40 -20 80 -10 120 20 c12-60 32-120 20-190z"/>
    <path d="M0 80 c80 -40 180 -20 260 40 c-80-4 -160 10 -240 60 c-20-60 -40-110 -20-160z" />
  </g>
  <!-- subtle foreground leaves for depth -->
  <g transform="translate(40,360) scale(0.9)" fill="#2f8a4b" fill-opacity="0.14">
    <path d="M0 0 q40 -40 80 -20 q-20 -2 -40 12 q-10 6 -40 8z" />
    <path d="M1050 100 q-20 -50 60 -80 q-30 30 -40 80 q-10 10 -20 0z" />
  </g>
</svg>
